<svg width="40" height="42" viewBox="0 0 40 42" fill="none" xmlns="http://www.w3.org/2000/svg">
<path d="M2.77372 0.940664C2.77372 0.984131 2.57553 2.0273 2.31129 3.2878C1.71674 6.26517 1.6727 10.916 2.22321 12.5242C3.21412 15.4146 5.21797 17.0446 9.07153 18.066C10.4148 18.4355 11.692 18.5659 14.7528 18.6528L18.6944 18.7832L18.5623 17.9356C18.4742 17.4575 18.4082 16.5447 18.4082 15.871V14.654L15.0611 14.5236C10.2386 14.3497 8.45496 13.6978 7.44203 11.7635C7.00162 10.916 6.93556 10.5465 7.02364 8.93829C7.13374 6.80849 7.72829 5.13507 9.29174 2.63581C9.82022 1.76651 10.2606 1.0276 10.2606 0.984131C10.2606 0.940664 8.58709 0.8972 6.51717 0.8972C4.46928 0.8972 2.77372 0.918932 2.77372 0.940664Z" fill="#163BA4"/>
<path d="M30.2991 0.984138C30.2991 1.0276 30.7395 1.76652 31.268 2.63582C32.7874 5.06989 33.426 6.8085 33.5361 8.9383C33.6462 10.5465 33.6022 10.9377 33.1838 11.7201C32.1929 13.6543 30.2551 14.3497 25.5207 14.5236L22.1516 14.654V15.545C22.1516 16.0449 22.0856 16.9577 22.0195 17.5662L21.8654 18.718H24.772C32.6333 18.718 36.9713 16.7403 38.2485 12.5894C38.6669 11.242 38.7109 10.6987 38.6228 7.67781C38.5568 5.52627 38.3586 3.63553 38.1164 2.57063L37.72 0.897207H33.9986C31.9727 0.897207 30.2991 0.940672 30.2991 0.984138Z" fill="#163BA4"/>
<path d="M19.4211 5.04805C17.6154 5.46097 16.6465 6.39547 16.2061 8.13409C15.8758 9.37285 16.2061 10.6333 17.1309 11.6765C18.0998 12.7631 18.9146 13.1109 20.434 13.0891C21.8433 13.0674 22.9223 12.6762 23.693 11.8721L24.1775 11.3723L23.1645 10.7855C22.2397 10.2422 22.1296 10.2204 21.6671 10.5464C20.8744 11.1115 19.7954 10.9811 19.0467 10.2639C18.3421 9.54671 18.254 9.00339 18.7164 8.09062C19.2449 7.09092 20.456 6.74319 21.469 7.28651C21.9314 7.5473 22.1075 7.50384 22.9663 7.04745C24.0673 6.43894 24.0013 6.15641 22.614 5.4827C21.557 4.96111 20.456 4.80899 19.4211 5.04805Z" fill="#163BA4"/>
<path d="M14.2242 21.7606C10.6129 22.2387 8.63109 22.6951 6.75936 23.5209C2.7957 25.2813 0.923972 28.1065 0.945993 32.3009C0.945993 34.5177 1.21024 35.9955 2.15711 38.8642L2.7957 40.8853H6.95754C9.26968 40.8853 11.1414 40.8201 11.1414 40.7549C11.1414 40.668 10.8331 40.2768 10.4808 39.8639C9.66604 38.9511 8.65311 37.0387 8.19068 35.4739C7.79431 34.1265 7.72825 31.4099 8.05856 30.1929C8.47694 28.715 9.59998 27.3676 10.9873 26.6722C11.6699 26.3244 12.2865 26.0854 12.3525 26.1506C12.4186 26.194 12.1103 26.8678 11.6919 27.6501C10.1064 30.584 9.88624 33.7136 11.1194 36.2128C14.0921 42.1893 23.2306 43.3194 27.9429 38.2774C29.5504 36.5823 30.1449 35.061 30.167 32.7356C30.167 30.8448 29.6605 28.9758 28.6476 27.2155C28.3393 26.6939 28.1191 26.2158 28.1851 26.1723C28.2292 26.1288 28.6255 26.2375 29.0659 26.4114C31.312 27.3459 32.5011 29.1714 32.6773 31.9532C32.8314 34.7567 32.0167 37.3212 30.211 39.6466C29.7706 40.2116 29.4183 40.7115 29.4183 40.7767C29.4183 40.8419 31.29 40.8853 33.6021 40.8853H37.764L38.4246 38.7555C39.3935 35.6695 39.6137 34.2351 39.5036 31.7141C39.4375 29.8669 39.3274 29.2583 38.843 28.2152C37.3676 25.0857 34.1526 23.0863 29.1981 22.1952C27.8328 21.9562 22.7902 21.3259 22.1295 21.3259C21.8213 21.3259 21.8653 21.6302 22.5039 23.3036C24.838 29.3887 25.1463 32.9312 23.5388 34.8219C22.7681 35.7347 21.7992 36.1041 20.2358 36.1041C18.6503 36.1041 17.3952 35.5174 16.6465 34.4307C16.14 33.7136 16.096 33.431 16.096 31.4534C16.096 29.0193 16.5584 26.9982 17.8796 23.6513C18.276 22.5864 18.6283 21.6302 18.6283 21.5215C18.6283 21.2607 17.7255 21.3042 14.2242 21.7606Z" fill="#163BA4"/>
</svg>
